<?xml version="1.0" encoding="UTF-8"?>
<svg id="_レイヤー_2" data-name="レイヤー 2" xmlns="http://www.w3.org/2000/svg" viewBox="0 0 550 85">
  <defs>
    <style>
      .cls-1 {
        fill: #fff;
      }

      .cls-2 {
        fill: #242424;
      }
    </style>
  </defs>
  <g id="_レイヤー_1-2" data-name="レイヤー 1">
    <g>
      <g>
        <g>
          <path class="cls-1" d="m42.5,0C19.03,0,0,19.03,0,42.5c0,14.45,7.22,27.21,18.24,34.89v-16.19c0-1.59,1.29-2.88,2.88-2.88h6.72c1.59,0,2.88,1.29,2.88,2.88v22.14c3.74,1.08,7.69,1.67,11.78,1.67,23.47,0,42.5-19.03,42.5-42.5S65.97,0,42.5,0Z"/>
          <path class="cls-2" d="m27.84,58.31h-6.72c-1.59,0-2.88,1.29-2.88,2.88v16.19c3.76,2.62,7.97,4.65,12.48,5.95v-22.14c0-1.59-1.29-2.88-2.88-2.88Z"/>
        </g>
        <path class="cls-2" d="m18.26,37.53c.17-6.48,2.88-12.52,7.62-16.99,4.73-4.46,10.9-6.82,17.41-6.59,12.94.41,23.47,11.5,23.47,24.7,0,1.45-1.18,2.63-2.63,2.63h-7.22c-1.45,0-2.63-1.18-2.63-2.63v-.46c0-3.22-1.28-6.23-3.61-8.48-2.32-2.24-5.37-3.41-8.61-3.3-6.26.23-11.35,5.65-11.35,12.1v11.07c0,1.45-1.18,2.63-2.63,2.63h-7.22c-1.45,0-2.63-1.18-2.63-2.63.08,0,.02-9.8.02-12.06Z"/>
      </g>
      <g>
        <rect class="cls-1" x="179.14" y="44.78" width="11.13" height="11.13" rx="5.56" ry="5.56"/>
        <path class="cls-1" d="m207.88,62.3c0,2.85-3.52,4.01-5.34,4.01-2.12,0-3.03-2.25-3.28-2.85l-3.64-9.89-2.73-7.52-6.74-18.45c-.55-1.46-1.03-1.58-1.46-1.58-.36,0-.91.12-1.46,1.58l-6.74,18.45-2.73,7.52-3.58,9.89c-.49,1.34-1.46,2.85-3.4,2.85-2.12,0-5.28-1.52-5.28-3.82,0-.24.06-.97.42-2l2.51-6.92,2.74-7.52,9.25-25.49c1.76-4.85,4.98-5.89,8.19-5.89,2.43,0,6.37.3,8.37,5.89l9.25,25.49,2.74,7.52,2.51,6.92c.18.42.36,1.15.36,1.82Z"/>
        <path class="cls-1" d="m263.94,49.4v13.39c0,1.7-1.15,3.52-3.7,3.52-3.16,0-3.64-2.37-3.64-3.52v-3.64c-5.04,6.61-11.47,7.16-14.56,7.16-11.11,0-23-7.77-23-25.73s10.5-25.91,23.55-25.91,20.87,9.41,20.87,15.17c0,.97-.49,3.94-4.31,3.94-3.16,0-3.64-1.52-4.13-3.22-2.37-7.83-10.5-8.19-12.62-8.19-8.86,0-14.32,6.8-14.32,17.9,0,7.65,1.7,10.92,4.07,13.65,2.55,2.97,5.77,4.61,9.89,4.61,6.16,0,9.73-4.06,11.38-7.42.52-1.05,1.56-1.73,2.73-1.73h7.79Z"/>
        <path class="cls-1" d="m263.95,47.37c0-6.37-2.67-8.61-8.37-8.61h-3.44c-.96,0-1.73.16-2.33.49-1,.55-1.49,1.57-1.49,3.09,0,2.91,2.18,3.52,3.82,3.52h.26c1.58,0,1.7,1.14,1.7,1.51h0c0,1.12.91,2.02,2.02,2.02h7.83v-2.02Z"/>
        <path class="cls-1" d="m371.17,53.2c.12.24.18.36.36.36s.24-.18.24-.42V18.71c0-2.18.97-4.13,4.37-4.13,3.09,0,4.43,1.52,4.43,4.13v42.38c0,4.43-3.82,5.22-6.55,5.22-2.12,0-5.16-.24-6.92-3.88l-16.63-34.71c-.12-.18-.24-.3-.36-.3-.18,0-.24.18-.24.36v34.34c0,2.18-.97,4.19-4.37,4.19-3.1,0-4.43-1.52-4.43-4.19V19.83c0-4.37,3.7-5.16,6.61-5.16,2,0,5.1.18,6.86,3.82l16.63,34.71Z"/>
        <path class="cls-1" d="m302.48,14.67c-15.05,0-23.42,11.29-23.42,25.79s8.8,25.85,23.42,25.85,23.42-10.86,23.42-25.85c0-13.96-7.89-25.79-23.42-25.79Zm0,43.87c-9.16,0-14.38-7.34-14.38-18.08s5.46-18.08,14.38-18.08,14.44,7.52,14.44,18.08c0,11.23-5.64,18.08-14.44,18.08Z"/>
        <path class="cls-1" d="m302.48,19.12c-13.56,0-21.1,9.34-21.1,21.35s7.93,21.4,21.1,21.4,21.1-8.99,21.1-21.4c0-11.55-7.11-21.35-21.1-21.35Zm0,36.32c-8.26,0-12.96-6.08-12.96-14.97s4.92-14.97,12.96-14.97,13.01,6.23,13.01,14.97c0,9.29-5.08,14.97-13.01,14.97Z"/>
        <path class="cls-1" d="m419.11,19.12c-13.56,0-21.1,9.34-21.1,21.35s7.93,21.4,21.1,21.4,21.1-8.99,21.1-21.4c0-11.55-7.11-21.35-21.1-21.35Zm0,36.32c-8.26,0-12.96-6.08-12.96-14.97s4.92-14.97,12.96-14.97,13.01,6.23,13.01,14.97c0,9.29-5.08,14.97-13.01,14.97Z"/>
        <path class="cls-1" d="m419.11,14.67c-15.05,0-23.42,11.29-23.42,25.79s8.8,25.85,23.42,25.85,23.42-10.86,23.42-25.85c0-13.96-7.89-25.79-23.42-25.79Zm0,43.87c-9.16,0-14.38-7.34-14.38-18.08s5.46-18.08,14.38-18.08,14.44,7.52,14.44,18.08c0,11.23-5.64,18.08-14.44,18.08Z"/>
        <path class="cls-1" d="m474.85,15.95h-19.66c-2.06,0-3.94.85-3.94,3.88,0,3.28,2.37,3.76,3.94,3.76h10.86v38.53c0,2.91,1.7,4.19,4.49,4.19,3.46,0,4.31-2.18,4.31-4.19V23.59h0v-7.65Z"/>
        <path class="cls-1" d="m533.19,36.21c2.31,0,3.82,1.09,3.82,3.64,0,2.31-1.15,3.7-3.82,3.7h-19.72v11.29c0,1.58.79,2.49,2.49,2.49h20.57c1.52,0,3.88.55,3.88,3.82,0,2.97-1.82,3.82-3.88,3.82h-23.48c-5.76,0-8.37-2-8.37-8.37V24.32c0-6.25,2.55-8.37,8.37-8.37h22.33c1.52,0,3.88.55,3.88,3.82,0,2.97-1.88,3.82-3.88,3.82h-19.42c-1.64,0-2.49.85-2.49,2.49v10.13h19.72Z"/>
        <path class="cls-1" d="m477.87,23.57h5.07c1.86,0,3.38,1.43,3.42,3.21.05,1.89,1.39,3.59,3.25,3.85,2.36.34,4.37-1.48,4.37-3.77,0-6.02-4.96-10.92-11.05-10.92h-5.07v7.63Z"/>
        <path class="cls-1" d="m530.29,57.31h7.03c1.71,0,3.1,1.39,3.1,3.1v1.47c0,1.71-1.39,3.1-3.1,3.1h-7.03v-7.67h0Z"/>
        <path class="cls-1" d="m96.82,54.43h11.53c2.01,0,3.64,1.63,3.64,3.64v1.51c0,2.01-1.63,3.64-3.64,3.64h-11.53v-8.8h0Z" transform="translate(163.23 -45.58) rotate(90)"/>
        <rect class="cls-1" x="100" y="70.46" width="8.8" height="8.8" rx="4.38" ry="4.38"/>
        <rect class="cls-1" x="371.78" y="1.74" width="8.8" height="8.8" rx="4.38" ry="4.38"/>
        <rect class="cls-1" x="542.3" y="15.95" width="7.7" height="7.7" rx="3.84" ry="3.84"/>
        <g>
          <path class="cls-1" d="m96.81,54.43h11.53c2.01,0,3.64,1.63,3.64,3.64v1.51c0,2.01-1.63,3.64-3.64,3.64h-11.53v-8.8h0Z" transform="translate(163.23 -45.57) rotate(90)"/>
          <path class="cls-1" d="m141.02,14.77c-2.85,0-6.49.42-7.4,4.07l-9.47,37.62c-.12.49-.18.67-.48.67s-.36-.3-.42-.67l-9.47-37.62c-.91-3.52-4.31-4.07-7.04-4.07-3.16,0-6.74.42-6.74,5.34v31.13h8.8v-16.32l-.24-9.1c0-.12.06-.18.18-.18s.18.06.18.12l9.47,36.59c.67,2.67,2.43,4.07,5.04,4.07,1.82,0,4.61-.3,5.58-4.07l9.47-36.59c0-.06.06-.12.18-.12s.18.12.18.18l-.24,9.1v27.31c0,2.18.97,4.19,4.31,4.19,3.16,0,4.49-1.52,4.49-4.19V20.11c0-4.61-3.28-5.34-6.37-5.34Z"/>
        </g>
      </g>
    </g>
  </g>
</svg>