<?xml version="1.0" encoding="UTF-8"?>
<svg id="_レイヤー_2" data-name="レイヤー 2" xmlns="http://www.w3.org/2000/svg" viewBox="0 0 138.74 138.74">
  <defs>
    <style>
      .cls-1 {
        fill: #242424;
      }

      .cls-2 {
        fill: #fffefe;
      }
    </style>
  </defs>
  <g id="_レイヤー_1-2" data-name="レイヤー 1">
    <g>
      <g>
        <path class="cls-1" d="m69.37,0C31.06,0,0,31.06,0,69.37c0,23.59,11.78,44.41,29.77,56.94v-26.43c0-2.59,2.11-4.7,4.7-4.7h10.96c2.59,0,4.7,2.11,4.7,4.7v36.13c6.11,1.76,12.55,2.72,19.23,2.72,38.31,0,69.37-31.06,69.37-69.37S107.68,0,69.37,0Z"/>
        <path class="cls-2" d="m45.44,95.18h-10.96c-2.59,0-4.7,2.11-4.7,4.7v26.43c6.14,4.28,13,7.58,20.37,9.71v-36.13c0-2.59-2.11-4.7-4.7-4.7Z"/>
      </g>
      <path class="cls-2" d="m29.8,61.26c.28-10.58,4.7-20.43,12.44-27.73,7.72-7.28,17.79-11.13,28.42-10.76,21.12.68,38.31,18.77,38.31,40.32,0,2.37-1.93,4.29-4.29,4.29h-11.79c-2.37,0-4.29-1.93-4.29-4.29v-.74c0-5.26-2.09-10.17-5.89-13.84-3.79-3.66-8.77-5.56-14.05-5.38-10.21.37-18.52,9.23-18.52,19.75v18.07c0,2.37-1.93,4.29-4.29,4.29h-11.79c-2.37,0-4.29-1.93-4.29-4.29.13,0,.03-15.99.03-19.69Z"/>
    </g>
  </g>
</svg>